<?xml version="1.0" standalone="no"?>
<!DOCTYPE svg PUBLIC "-//W3C//DTD SVG 20010904//EN"
 "http://www.w3.org/TR/2001/REC-SVG-20010904/DTD/svg10.dtd">
<svg version="1.0" xmlns="http://www.w3.org/2000/svg"
 width="24.000000pt" height="24.000000pt" viewBox="0 0 24.000000 24.000000"
 preserveAspectRatio="xMidYMid meet">
<metadata>
Created by potrace 1.16, written by Peter Selinger 2001-2019
</metadata>
<g transform="translate(0.000000,24.000000) scale(0.100000,-0.100000)"
fill="#000000" stroke="none">
<path d="M32 208 c-20 -20 -14 -71 13 -103 l25 -30 25 30 25 30 0 -30 c0 -17
11 -43 25 -60 l25 -30 25 30 c27 32 33 83 13 103 -15 15 -61 15 -76 0 -9 -9
-12 -5 -12 18 0 17 -5 35 -12 42 -15 15 -61 15 -76 0z"/>
</g>
</svg>
