<?xml version="1.0" standalone="no"?>
<!DOCTYPE svg PUBLIC "-//W3C//DTD SVG 20010904//EN"
 "http://www.w3.org/TR/2001/REC-SVG-20010904/DTD/svg10.dtd">
<svg version="1.0" xmlns="http://www.w3.org/2000/svg"
 width="24.000000pt" height="24.000000pt" viewBox="0 0 24.000000 24.000000"
 preserveAspectRatio="xMidYMid meet">
<metadata>
Created by potrace 1.16, written by Peter Selinger 2001-2019
</metadata>
<g transform="translate(0.000000,24.000000) scale(0.100000,-0.100000)"
fill="#000000" stroke="none">
<path d="M90 227 c0 -6 -16 -34 -35 -61 -58 -82 -44 -166 29 -166 25 0 26 2
21 33 -5 27 -2 34 19 43 32 15 38 1 20 -43 -13 -33 -13 -33 16 -33 39 0 60 32
60 91 0 42 -5 53 -46 98 -43 48 -84 67 -84 38z"/>
</g>
</svg>
